<svg width="117" height="59" viewBox="0 0 117 59" fill="none" xmlns="http://www.w3.org/2000/svg">
<path d="M32.9905 39.6821H27.1253C26.542 39.6821 25.9826 39.4904 25.5701 39.1491C25.1576 38.8078 24.9259 38.3449 24.9259 37.8622C24.9259 37.3795 25.1576 36.9166 25.5701 36.5753C25.9826 36.2339 26.542 36.0422 27.1253 36.0422H32.9905C33.5738 36.0422 34.1332 36.2339 34.5457 36.5753C34.9582 36.9166 35.1899 37.3795 35.1899 37.8622C35.1899 38.3449 34.9582 38.8078 34.5457 39.1491C34.1332 39.4904 33.5738 39.6821 32.9905 39.6821ZM18.3277 36.0422H17.5945V35.4355C17.5943 34.953 17.3625 34.4902 16.95 34.1491C16.5376 33.8079 15.9783 33.6163 15.3951 33.6163C14.8119 33.6163 14.2526 33.8079 13.8402 34.1491C13.4277 34.4902 13.1959 34.953 13.1957 35.4355V36.0422H12.4625C11.8792 36.0422 11.3198 36.2339 10.9073 36.5753C10.4948 36.9166 10.2631 37.3795 10.2631 37.8622C10.2631 38.3449 10.4948 38.8078 10.9073 39.1491C11.3198 39.4904 11.8792 39.6821 12.4625 39.6821H13.1957V40.2888C13.1959 40.7714 13.4277 41.2341 13.8402 41.5752C14.2526 41.9164 14.8119 42.1081 15.3951 42.1081C15.9783 42.1081 16.5376 41.9164 16.95 41.5752C17.3625 41.2341 17.5943 40.7714 17.5945 40.2888V39.6821H18.3277C18.911 39.6821 19.4704 39.4904 19.8829 39.1491C20.2954 38.8078 20.5271 38.3449 20.5271 37.8622C20.5271 37.3795 20.2954 36.9166 19.8829 36.5753C19.4704 36.2339 18.911 36.0422 18.3277 36.0422ZM39.3964 55.969C38.236 56.1381 37.0434 56.0734 35.9196 55.7803C34.7958 55.4873 33.7738 54.9746 32.9402 54.2856C32.9013 54.2534 32.8641 54.2204 32.8286 54.1863L25.6001 47.5464L19.8644 47.5654L12.6225 54.1896C12.5882 54.2225 12.5522 54.2545 12.5145 54.2856C11.4118 55.1975 9.98644 55.7948 8.4455 55.9908C6.90455 56.1868 5.32823 55.9712 3.94545 55.3753C2.56267 54.7795 1.44542 53.8344 0.755946 52.6774C0.0664741 51.5203 -0.159321 50.2115 0.11135 48.941C0.113587 48.9305 0.115915 48.9202 0.118421 48.9098L3.10191 36.2127C3.10406 36.2013 3.10629 36.19 3.10871 36.1786C3.58245 33.9288 5.00169 31.8899 7.1158 30.4218C9.22991 28.9538 11.9029 28.1512 14.6628 28.1557L30.7878 28.1163H30.7944C33.5384 28.1195 36.1944 28.9174 38.3017 30.3717C40.409 31.826 41.8346 33.8449 42.3311 36.078C42.3336 36.0879 42.3375 36.0972 42.3398 36.1072L45.3366 48.9111C45.339 48.9211 45.3412 48.931 45.3433 48.941C45.6787 50.5253 45.2409 52.155 44.1261 53.4725C43.0112 54.7901 41.3103 55.6879 39.3964 55.969ZM30.7856 43.8893C31.7484 43.89 32.7019 43.7337 33.5916 43.4294C34.4814 43.1251 35.29 42.6787 35.9714 42.1158C36.6527 41.5529 37.1933 40.8845 37.5625 40.1487C37.9316 39.4129 38.122 38.6242 38.1227 37.8275C38.1235 37.0308 37.9346 36.2418 37.5669 35.5056C37.1991 34.7693 36.6597 34.1002 35.9795 33.5364C35.2992 32.9726 34.4914 32.5253 33.6022 32.2198C32.713 31.9144 31.7598 31.7568 30.7971 31.7562L14.6692 31.7956C12.9565 31.7914 11.2963 32.2846 9.97791 33.1893C8.65955 34.094 7.76662 35.3528 7.45475 36.7463C7.44939 36.7776 7.44312 36.8088 7.43569 36.8401L4.44057 49.5867C4.33674 50.0906 4.42786 50.6088 4.70095 51.0673C4.97403 51.5258 5.41513 51.9013 5.96132 52.1401C6.50752 52.379 7.13091 52.469 7.74258 52.3974C8.35426 52.3257 8.92298 52.0961 9.36762 51.7412L17.2536 44.5278C17.4588 44.3401 17.7091 44.1899 17.9884 44.0867C18.2677 43.9835 18.57 43.9297 18.8759 43.9287L30.7856 43.8893ZM41.014 49.5861L39.7302 44.1008C38.7059 45.1016 37.4467 45.9198 36.0289 46.506C34.6112 47.0923 33.0644 47.4342 31.4822 47.5112L36.0883 51.7422C36.5332 52.0969 37.102 52.3262 37.7136 52.3976C38.3252 52.4689 38.9485 52.3787 39.4945 52.1397C40.0405 51.9007 40.4814 51.5251 40.7542 51.0666C41.0271 50.608 41.118 50.0899 41.014 49.5861Z" fill="white"/>
<path d="M10.8726 8.21582V18.3975H12.6245C13.2508 18.3975 13.6951 18.5202 13.9575 18.7656C14.2284 19.0026 14.3638 19.3158 14.3638 19.7051C14.3638 20.0859 14.2284 20.3991 13.9575 20.6445C13.6951 20.8815 13.2508 21 12.6245 21H6.53076C5.90446 21 5.45589 20.8815 5.18506 20.6445C4.92269 20.3991 4.7915 20.0817 4.7915 19.6924C4.7915 19.3115 4.92269 19.0026 5.18506 18.7656C5.45589 18.5202 5.90446 18.3975 6.53076 18.3975H8.27002V8.21582H5.45166V10.6787C5.45166 11.305 5.32894 11.7536 5.0835 12.0244C4.84652 12.2868 4.53337 12.418 4.14404 12.418C3.76318 12.418 3.45003 12.2868 3.20459 12.0244C2.96761 11.7536 2.84912 11.305 2.84912 10.6787V5.60059L16.3315 5.61328V10.6787C16.3315 11.305 16.2088 11.7536 15.9634 12.0244C15.7264 12.2868 15.4132 12.418 15.0239 12.418C14.6431 12.418 14.3299 12.2868 14.0845 12.0244C13.8475 11.7536 13.729 11.305 13.729 10.6787V8.21582H10.8726ZM24.6851 9.47266V11.0977C25.7769 10.3105 26.6359 9.78581 27.2622 9.52344C27.897 9.26107 28.4894 9.12988 29.0396 9.12988C29.8859 9.12988 30.7069 9.44303 31.5024 10.0693C32.0441 10.4925 32.3149 10.9242 32.3149 11.3643C32.3149 11.7367 32.1838 12.054 31.9214 12.3164C31.6675 12.5703 31.3586 12.6973 30.9946 12.6973C30.673 12.6973 30.3345 12.5365 29.979 12.2148C29.6235 11.8932 29.3062 11.7324 29.0269 11.7324C28.6629 11.7324 28.117 11.9609 27.3892 12.418C26.6698 12.875 25.7684 13.5605 24.6851 14.4746V18.3975H28.3921C29.0184 18.3975 29.4627 18.5202 29.7251 18.7656C29.9959 19.0026 30.1313 19.3158 30.1313 19.7051C30.1313 20.0859 29.9959 20.3991 29.7251 20.6445C29.4627 20.8815 29.0184 21 28.3921 21H20.5337C19.9074 21 19.4588 20.8815 19.188 20.6445C18.9256 20.3991 18.7944 20.0817 18.7944 19.6924C18.7944 19.3115 18.9256 19.0026 19.188 18.7656C19.4588 18.5202 19.9074 18.3975 20.5337 18.3975H22.0825V12.0752H21.1431C20.5168 12.0752 20.0682 11.9567 19.7974 11.7197C19.535 11.4743 19.4038 11.1569 19.4038 10.7676C19.4038 10.3867 19.535 10.0778 19.7974 9.84082C20.0682 9.59538 20.5168 9.47266 21.1431 9.47266H24.6851ZM43.1821 21V20.3906C42.5304 20.7376 41.811 20.9958 41.0239 21.165C40.2368 21.3428 39.5216 21.4316 38.8784 21.4316C37.4819 21.4316 36.3478 21.0635 35.4761 20.3271C34.6043 19.5824 34.1685 18.7614 34.1685 17.8643C34.1685 16.7725 34.7228 15.7611 35.8315 14.8301C36.9487 13.8906 38.4891 13.4209 40.4526 13.4209C41.2397 13.4209 42.1496 13.5055 43.1821 13.6748V13.0527C43.1821 12.6634 43.0129 12.346 42.6743 12.1006C42.3442 11.8551 41.7095 11.7324 40.77 11.7324C39.9998 11.7324 39.0011 11.8848 37.7739 12.1895C37.3169 12.2995 36.9614 12.3545 36.7075 12.3545C36.3605 12.3545 36.0643 12.2318 35.8188 11.9863C35.5819 11.7324 35.4634 11.4108 35.4634 11.0215C35.4634 10.8014 35.5057 10.611 35.5903 10.4502C35.675 10.2894 35.7935 10.1624 35.9458 10.0693C36.0981 9.96777 36.4155 9.84928 36.8979 9.71387C37.5412 9.53613 38.1971 9.39648 38.8657 9.29492C39.5343 9.1849 40.1395 9.12988 40.6812 9.12988C42.2977 9.12988 43.5503 9.48112 44.439 10.1836C45.3361 10.8776 45.7847 11.8298 45.7847 13.04V18.3975H46.229C46.8553 18.3975 47.2996 18.5202 47.562 18.7656C47.8328 19.0026 47.9683 19.3158 47.9683 19.7051C47.9683 20.0859 47.8328 20.3991 47.562 20.6445C47.2996 20.8815 46.8553 21 46.229 21H43.1821ZM43.1821 16.3408C42.1411 16.1377 41.1805 16.0361 40.3003 16.0361C39.2424 16.0361 38.3325 16.2943 37.5708 16.8105C37.0968 17.1406 36.8599 17.4749 36.8599 17.8135C36.8599 18.0589 36.9741 18.2578 37.2026 18.4102C37.6258 18.6895 38.2056 18.8291 38.9419 18.8291C39.5682 18.8291 40.2749 18.7064 41.062 18.4609C41.8576 18.2155 42.5643 17.8812 43.1821 17.458V16.3408ZM62.4282 4.53418V18.3975H62.8726C63.4904 18.3975 63.9347 18.5202 64.2056 18.7656C64.4764 19.0026 64.6118 19.3158 64.6118 19.7051C64.6118 20.0859 64.4764 20.3991 64.2056 20.6445C63.9432 20.8815 63.4989 21 62.8726 21H59.8257V20.3652C59.2332 20.7122 58.6112 20.9746 57.9595 21.1523C57.3162 21.3301 56.6476 21.4189 55.9536 21.4189C53.9985 21.4189 52.4243 20.8561 51.231 19.7305C50.0376 18.5964 49.4409 17.1872 49.4409 15.5029C49.4409 13.7425 50.0672 12.2402 51.3198 10.9961C52.5724 9.75195 54.1001 9.12988 55.9028 9.12988C56.5799 9.12988 57.2443 9.23568 57.896 9.44727C58.5477 9.65039 59.1909 9.95931 59.8257 10.374V7.13672H59.3813C58.755 7.13672 58.3065 7.01823 58.0356 6.78125C57.7733 6.53581 57.6421 6.22266 57.6421 5.8418C57.6421 5.45247 57.7733 5.13932 58.0356 4.90234C58.3065 4.6569 58.755 4.53418 59.3813 4.53418H62.4282ZM59.8257 15.5791C59.8257 14.5042 59.4491 13.5944 58.6958 12.8496C57.9425 12.1048 57.02 11.7324 55.9282 11.7324C54.8449 11.7324 53.9266 12.1048 53.1733 12.8496C52.4201 13.5944 52.0435 14.4915 52.0435 15.541C52.0435 16.4974 52.382 17.2845 53.0591 17.9023C53.7362 18.5117 54.6925 18.8164 55.9282 18.8164C57.1554 18.8164 58.1118 18.5117 58.7974 17.9023C59.4829 17.2845 59.8257 16.5101 59.8257 15.5791ZM73.0034 4.53418V7.28906H69.9058V4.53418H73.0034ZM73.3589 9.47266V18.3975H76.4819C77.1082 18.3975 77.5526 18.5202 77.8149 18.7656C78.0858 19.0026 78.2212 19.3158 78.2212 19.7051C78.2212 20.0859 78.0858 20.3991 77.8149 20.6445C77.5526 20.8815 77.1082 21 76.4819 21H67.6333C67.007 21 66.5584 20.8815 66.2876 20.6445C66.0252 20.3991 65.894 20.0817 65.894 19.6924C65.894 19.3115 66.0252 19.0026 66.2876 18.7656C66.5584 18.5202 67.007 18.3975 67.6333 18.3975H70.7563V12.0752H68.6616C68.0438 12.0752 67.5994 11.9567 67.3286 11.7197C67.0578 11.4743 66.9224 11.1569 66.9224 10.7676C66.9224 10.3867 67.0535 10.0778 67.3159 9.84082C67.5868 9.59538 68.0353 9.47266 68.6616 9.47266H73.3589ZM85.0513 9.47266V10.3486C85.5252 9.94238 86.0457 9.6377 86.6128 9.43457C87.1883 9.23145 87.8104 9.12988 88.479 9.12988C90.0194 9.12988 91.2381 9.60807 92.1353 10.5645C92.8462 11.3262 93.2017 12.3249 93.2017 13.5605V18.3975C93.7518 18.3975 94.158 18.5202 94.4204 18.7656C94.6828 19.0026 94.814 19.3158 94.814 19.7051C94.814 20.0859 94.6785 20.3991 94.4077 20.6445C94.1453 20.8815 93.701 21 93.0747 21H90.7261C90.0998 21 89.6512 20.8815 89.3804 20.6445C89.118 20.3991 88.9868 20.0817 88.9868 19.6924C88.9868 19.3115 89.118 19.0026 89.3804 18.7656C89.6427 18.5202 90.049 18.3975 90.5991 18.3975V13.4844C90.5991 12.9173 90.4468 12.5026 90.1421 12.2402C89.7443 11.9017 89.1476 11.7324 88.3521 11.7324C87.7511 11.7324 87.2222 11.8509 86.7651 12.0879C86.3166 12.3164 85.7453 12.8073 85.0513 13.5605V18.3975C85.7199 18.3975 86.1515 18.4609 86.3462 18.5879C86.7609 18.8418 86.9683 19.2142 86.9683 19.7051C86.9683 20.0859 86.8328 20.3991 86.562 20.6445C86.2996 20.8815 85.8553 21 85.229 21H82.271C81.6447 21 81.1961 20.8815 80.9253 20.6445C80.6629 20.3991 80.5317 20.0817 80.5317 19.6924C80.5317 19.2184 80.7349 18.8503 81.1411 18.5879C81.3442 18.4609 81.7801 18.3975 82.4487 18.3975V12.0752C81.8986 12.0752 81.4924 11.9525 81.23 11.707C80.9676 11.4616 80.8364 11.1484 80.8364 10.7676C80.8364 10.3867 80.9676 10.0778 81.23 9.84082C81.5008 9.59538 81.9494 9.47266 82.5757 9.47266H85.0513ZM106.164 10.2471V9.47266H109.21C109.837 9.47266 110.281 9.59538 110.543 9.84082C110.814 10.0778 110.95 10.391 110.95 10.7803C110.95 11.1611 110.814 11.4743 110.543 11.7197C110.281 11.9567 109.837 12.0752 109.21 12.0752H108.766V21.5459C108.766 22.46 108.571 23.2555 108.182 23.9326C107.801 24.6182 107.213 25.2064 106.417 25.6973C105.622 26.1882 104.725 26.4336 103.726 26.4336H100.781C100.154 26.4336 99.7059 26.3109 99.4351 26.0654C99.1727 25.8285 99.0415 25.5195 99.0415 25.1387C99.0415 24.7493 99.1727 24.432 99.4351 24.1865C99.7059 23.9495 100.154 23.8311 100.781 23.8311H103.65C104.445 23.8311 105.063 23.6152 105.503 23.1836C105.944 22.752 106.164 22.2061 106.164 21.5459V20.2764C105.588 20.6488 105 20.9281 104.399 21.1143C103.806 21.3005 103.197 21.3936 102.571 21.3936C100.802 21.3936 99.3208 20.8053 98.1274 19.6289C96.9341 18.444 96.3374 16.984 96.3374 15.249C96.3374 13.5055 96.9341 12.0456 98.1274 10.8691C99.3208 9.68424 100.802 9.0918 102.571 9.0918C103.231 9.0918 103.857 9.18913 104.45 9.38379C105.051 9.56999 105.622 9.85775 106.164 10.2471ZM106.151 15.2363C106.151 14.2799 105.795 13.4505 105.084 12.748C104.382 12.0456 103.536 11.6943 102.545 11.6943C101.555 11.6943 100.705 12.0456 99.9937 12.748C99.2912 13.4505 98.9399 14.2799 98.9399 15.2363C98.9399 16.2012 99.2912 17.0348 99.9937 17.7373C100.705 18.4313 101.555 18.7783 102.545 18.7783C103.536 18.7783 104.382 18.4313 105.084 17.7373C105.795 17.0348 106.151 16.2012 106.151 15.2363Z" fill="white"/>
<path d="M50.1343 51.0126C49.8882 51.3042 49.6877 51.4911 49.5327 51.5731C49.3869 51.6552 49.2046 51.6962 48.9858 51.6962C48.5575 51.6962 48.2111 51.5549 47.9468 51.2723C47.6916 50.9807 47.564 50.5022 47.564 49.8368V47.9501C47.564 47.2756 47.6916 46.7971 47.9468 46.5145C48.2111 46.2229 48.5575 46.077 48.9858 46.077C49.314 46.077 49.5874 46.1636 49.8062 46.3368C50.034 46.51 50.2072 46.8016 50.3257 47.2118C50.4442 47.6128 50.5672 47.8863 50.6948 48.0321C50.9591 48.3147 51.4285 48.6018 52.103 48.8934C52.7775 49.1851 53.5158 49.3309 54.3179 49.3309C55.5666 49.3309 56.592 49.0393 57.394 48.4559C57.9045 48.1005 58.1597 47.663 58.1597 47.1434C58.1597 46.7971 58.0366 46.4735 57.7905 46.1727C57.5444 45.8628 57.1434 45.6076 56.5874 45.4071C56.2228 45.2704 55.4071 45.0835 54.1401 44.8466C52.6089 44.564 51.4513 44.2222 50.6675 43.8212C49.8836 43.4201 49.2638 42.855 48.8081 42.1259C48.3524 41.3967 48.1245 40.6083 48.1245 39.7606C48.1245 38.4208 48.6851 37.2496 49.8062 36.2469C50.9272 35.2352 52.3856 34.7294 54.1812 34.7294C54.9012 34.7294 55.5666 34.8114 56.1772 34.9755C56.797 35.1304 57.3576 35.3719 57.8589 35.7001C58.2235 35.3446 58.5881 35.1669 58.9526 35.1669C59.3628 35.1669 59.6955 35.3127 59.9507 35.6044C60.215 35.8869 60.3472 36.3609 60.3472 37.0262V39.1317C60.3472 39.8062 60.215 40.2893 59.9507 40.5809C59.6955 40.8635 59.3628 41.0048 58.9526 41.0048C58.6063 41.0048 58.3055 40.8999 58.0503 40.6903C57.8498 40.5354 57.6994 40.2255 57.5991 39.7606C57.4989 39.2958 57.3713 38.9631 57.2163 38.7626C56.952 38.4162 56.5555 38.1246 56.0269 37.8876C55.4982 37.6506 54.8875 37.5321 54.1948 37.5321C53.1831 37.5321 52.381 37.7691 51.7886 38.243C51.2052 38.7079 50.9136 39.1955 50.9136 39.7059C50.9136 40.0523 51.0321 40.3895 51.269 40.7177C51.5151 41.0367 51.8706 41.2873 52.3354 41.4696C52.6453 41.5972 53.5158 41.8023 54.9468 42.0848C56.3869 42.3674 57.4897 42.6773 58.2554 43.0145C59.0301 43.3518 59.6727 43.8804 60.1831 44.6005C60.6935 45.3205 60.9487 46.1773 60.9487 47.1708C60.9487 48.5562 60.4611 49.6636 59.4858 50.493C58.1916 51.5868 56.5418 52.1337 54.5366 52.1337C53.7619 52.1337 53.0054 52.038 52.2671 51.8466C51.5379 51.6643 50.827 51.3863 50.1343 51.0126ZM68.1538 33.9911V39.9657C68.7371 39.6193 69.325 39.3641 69.9175 39.2001C70.519 39.0269 71.1252 38.9403 71.7358 38.9403C72.702 38.9403 73.5633 39.1044 74.3198 39.4325C75.0763 39.7606 75.7007 40.2802 76.1929 40.9911C76.6942 41.6929 76.9448 42.5816 76.9448 43.6571V48.9208C77.6558 48.9208 78.1206 48.9891 78.3394 49.1259C78.7769 49.4084 78.9956 49.8094 78.9956 50.329C78.9956 50.7391 78.8543 51.0764 78.5718 51.3407C78.2892 51.5959 77.8107 51.7235 77.1362 51.7235H73.937C73.2716 51.7235 72.7931 51.5959 72.5015 51.3407C72.2189 51.0764 72.0776 50.7346 72.0776 50.3153C72.0776 49.8049 72.2964 49.4084 72.7339 49.1259C72.9618 48.98 73.4266 48.9117 74.1284 48.9208V43.8485C74.1284 43.1285 73.9644 42.6226 73.6362 42.3309C73.2078 41.939 72.5744 41.743 71.7358 41.743C71.116 41.743 70.5646 41.8661 70.0815 42.1122C69.6076 42.3492 68.965 42.8687 68.1538 43.6708V48.9208C68.8739 48.9208 69.3387 48.9891 69.5483 49.1259C69.995 49.4084 70.2183 49.8094 70.2183 50.329C70.2183 50.7391 70.0724 51.0764 69.7808 51.3407C69.4982 51.5959 69.0197 51.7235 68.3452 51.7235H65.1597C64.4852 51.7235 64.0021 51.5959 63.7104 51.3407C63.4279 51.0764 63.2866 50.7346 63.2866 50.3153C63.2866 49.8049 63.5099 49.4084 63.9565 49.1259C64.1753 48.98 64.6401 48.9117 65.3511 48.9208V36.7938H64.8726C64.1981 36.7938 63.715 36.6662 63.4233 36.411C63.1408 36.1467 62.9995 35.8049 62.9995 35.3856C62.9995 34.9755 63.1408 34.6428 63.4233 34.3876C63.715 34.1233 64.1981 33.9911 64.8726 33.9911H68.1538ZM95.1421 45.7489C95.1421 46.8244 94.8413 47.868 94.2397 48.8798C93.6473 49.8824 92.7586 50.6844 91.5737 51.286C90.3979 51.8785 89.1675 52.1747 87.8823 52.1747C86.6063 52.1747 85.3849 51.883 84.2183 51.2997C83.0516 50.7072 82.1629 49.9052 81.5522 48.8934C80.9416 47.8817 80.6362 46.8244 80.6362 45.7216C80.6362 44.6005 80.9461 43.5022 81.5659 42.4266C82.1857 41.342 83.0744 40.4898 84.2319 39.87C85.3986 39.2502 86.6154 38.9403 87.8823 38.9403C89.1584 38.9403 90.3843 39.2593 91.5601 39.8973C92.745 40.5262 93.6382 41.3785 94.2397 42.454C94.8413 43.5204 95.1421 44.6187 95.1421 45.7489ZM92.3394 45.7626C92.3394 44.8602 92.0158 44.0308 91.3687 43.2743C90.4845 42.2535 89.3224 41.743 87.8823 41.743C86.6154 41.743 85.5581 42.1486 84.7104 42.9598C83.8628 43.771 83.439 44.7098 83.439 45.7762C83.439 46.6512 83.8674 47.4716 84.7241 48.2372C85.5809 48.9937 86.6336 49.3719 87.8823 49.3719C89.1401 49.3719 90.1974 48.9937 91.0542 48.2372C91.911 47.4716 92.3394 46.6467 92.3394 45.7626ZM101.199 50.1786V54.7723H102.88C103.555 54.7723 104.033 54.8999 104.316 55.1552C104.608 55.4195 104.753 55.7613 104.753 56.1805C104.753 56.5907 104.608 56.9234 104.316 57.1786C104.033 57.4429 103.555 57.5751 102.88 57.5751H97.9175C97.243 57.5751 96.7599 57.4429 96.4683 57.1786C96.1857 56.9234 96.0444 56.5907 96.0444 56.1805C96.0444 55.7613 96.1903 55.4195 96.4819 55.1552C96.7736 54.8999 97.2521 54.7723 97.9175 54.7723H98.396V42.1122H97.9175C97.243 42.1122 96.7599 41.9846 96.4683 41.7294C96.1857 41.465 96.0444 41.1233 96.0444 40.704C96.0444 40.2938 96.1857 39.9611 96.4683 39.7059C96.7599 39.4416 97.243 39.3094 97.9175 39.3094H101.199V40.2665C101.855 39.8199 102.534 39.4872 103.236 39.2684C103.938 39.0497 104.658 38.9403 105.396 38.9403C107.31 38.9403 108.942 39.592 110.291 40.8954C111.639 42.1897 112.314 43.6753 112.314 45.3524C112.314 47.2027 111.516 48.7294 109.921 49.9325C108.591 50.9351 107.091 51.4364 105.423 51.4364C104.703 51.4364 103.992 51.3316 103.291 51.1219C102.589 50.9123 101.891 50.5979 101.199 50.1786ZM109.511 45.3661C109.511 44.9742 109.356 44.4774 109.046 43.8759C108.736 43.2652 108.258 42.7593 107.611 42.3583C106.973 41.9481 106.221 41.743 105.355 41.743C103.96 41.743 102.853 42.2671 102.033 43.3153C101.477 44.0354 101.199 44.7281 101.199 45.3934C101.199 46.1408 101.595 46.87 102.388 47.5809C103.19 48.2828 104.179 48.6337 105.355 48.6337C106.54 48.6337 107.529 48.2828 108.322 47.5809C109.115 46.8791 109.511 46.1408 109.511 45.3661Z" fill="white"/>
</svg>
