<svg width="55" height="55" viewBox="0 0 55 55" fill="none" xmlns="http://www.w3.org/2000/svg">
<g clip-path="url(#clip0_119_20)">
<path d="M55 6.875H9.72125L9.625 6.07063C9.42803 4.39867 8.62442 2.8571 7.36654 1.73818C6.10866 0.619262 4.48394 0.000783277 2.80042 0L0 0V4.58333H2.80042C3.36172 4.58341 3.90348 4.78948 4.32294 5.16247C4.74239 5.53546 5.01037 6.04942 5.07604 6.60687L8.70833 37.471C8.90531 39.143 9.70891 40.6846 10.9668 41.8035C12.2247 42.9224 13.8494 43.5409 15.5329 43.5417H45.8333V38.9583H15.5329C14.9713 38.9582 14.4292 38.7518 14.0097 38.3783C13.5902 38.0049 13.3224 37.4904 13.2573 36.9325L12.9571 34.375H50.0408L55 6.875ZM46.2092 29.7917H12.4185L10.2621 11.4583H49.516L46.2092 29.7917Z" fill="#BDCCFF"/>
<path d="M16.0416 55C18.573 55 20.625 52.948 20.625 50.4167C20.625 47.8854 18.573 45.8333 16.0416 45.8333C13.5103 45.8333 11.4583 47.8854 11.4583 50.4167C11.4583 52.948 13.5103 55 16.0416 55Z" fill="#BDCCFF"/>
<path d="M38.9583 55C41.4896 55 43.5417 52.948 43.5417 50.4167C43.5417 47.8854 41.4896 45.8333 38.9583 45.8333C36.427 45.8333 34.375 47.8854 34.375 50.4167C34.375 52.948 36.427 55 38.9583 55Z" fill="#BDCCFF"/>
</g>
<defs>
<clipPath id="clip0_119_20">
<rect width="55" height="55" fill="white"/>
</clipPath>
</defs>
</svg>
