<svg width="40" height="40" viewBox="0 0 40 40" fill="none" xmlns="http://www.w3.org/2000/svg">
<g clip-path="url(#clip0_149_32)">
<path d="M35 6.66667H29.8333C29.4465 4.78569 28.423 3.09558 26.9354 1.8812C25.4478 0.666817 23.587 0.00242421 21.6666 0L18.3333 0C16.413 0.00242421 14.5522 0.666817 13.0646 1.8812C11.5769 3.09558 10.5535 4.78569 10.1666 6.66667H4.99998C4.55795 6.66667 4.13403 6.84226 3.82147 7.15482C3.50891 7.46738 3.33331 7.89131 3.33331 8.33333C3.33331 8.77536 3.50891 9.19928 3.82147 9.51184C4.13403 9.8244 4.55795 10 4.99998 10H6.66665V31.6667C6.66929 33.876 7.54812 35.9941 9.11035 37.5563C10.6726 39.1185 12.7907 39.9974 15 40H25C27.2093 39.9974 29.3274 39.1185 30.8896 37.5563C32.4518 35.9941 33.3307 33.876 33.3333 31.6667V10H35C35.442 10 35.8659 9.8244 36.1785 9.51184C36.4911 9.19928 36.6666 8.77536 36.6666 8.33333C36.6666 7.89131 36.4911 7.46738 36.1785 7.15482C35.8659 6.84226 35.442 6.66667 35 6.66667ZM18.3333 3.33333H21.6666C22.7004 3.33459 23.7085 3.65563 24.5527 4.25241C25.3968 4.84918 26.0357 5.69249 26.3816 6.66667H13.6183C13.9643 5.69249 14.6031 4.84918 15.4473 4.25241C16.2914 3.65563 17.2995 3.33459 18.3333 3.33333ZM30 31.6667C30 32.9927 29.4732 34.2645 28.5355 35.2022C27.5978 36.1399 26.3261 36.6667 25 36.6667H15C13.6739 36.6667 12.4021 36.1399 11.4644 35.2022C10.5268 34.2645 9.99998 32.9927 9.99998 31.6667V10H30V31.6667Z" fill="black"/>
<path d="M16.6667 30C17.1087 30 17.5326 29.8244 17.8452 29.5118C18.1577 29.1992 18.3333 28.7753 18.3333 28.3333V18.3333C18.3333 17.8913 18.1577 17.4673 17.8452 17.1548C17.5326 16.8422 17.1087 16.6666 16.6667 16.6666C16.2246 16.6666 15.8007 16.8422 15.4882 17.1548C15.1756 17.4673 15 17.8913 15 18.3333V28.3333C15 28.7753 15.1756 29.1992 15.4882 29.5118C15.8007 29.8244 16.2246 30 16.6667 30Z" fill="black"/>
<path d="M23.3334 30C23.7754 30 24.1993 29.8244 24.5119 29.5118C24.8244 29.1992 25 28.7753 25 28.3333V18.3333C25 17.8913 24.8244 17.4673 24.5119 17.1548C24.1993 16.8422 23.7754 16.6666 23.3334 16.6666C22.8913 16.6666 22.4674 16.8422 22.1548 17.1548C21.8423 17.4673 21.6667 17.8913 21.6667 18.3333V28.3333C21.6667 28.7753 21.8423 29.1992 22.1548 29.5118C22.4674 29.8244 22.8913 30 23.3334 30Z" fill="black"/>
</g>
<defs>
<clipPath id="clip0_149_32">
<rect width="40" height="40" fill="white"/>
</clipPath>
</defs>
</svg>
